<svg xmlns="http://www.w3.org/2000/svg" xmlns:xlink="http://www.w3.org/1999/xlink" version="1.1" x="0px" y="0px" viewBox="0 0 100 125" enable-background="new 0 0 100 100" xml:space="preserve"><g><path fill="#000000" d="M80.789,38.64c1.106-3.328,2.213-6.656,3.319-9.984c-3.244-1.359-6.669-2.174-10.184-2.718   c-1.106,3.328-2.213,6.656-3.319,9.984C74.12,36.466,77.545,37.282,80.789,38.64z"/><path fill="#000000" d="M59.879,34.834c1.106-3.328,2.213-6.656,3.319-9.984c-3.605-0.272-7.211-0.545-10.726-1.088   c-1.106,3.328-2.213,6.656-3.319,9.984C52.668,34.289,56.274,34.562,59.879,34.834z"/><path fill="#000000" d="M45.834,43.73c1.106-3.328,2.213-6.656,3.319-9.984c-3.515-0.544-6.94-1.359-10.184-2.718   c-1.106,3.328-2.213,6.656-3.319,9.984C38.894,42.371,42.319,43.186,45.834,43.73z"/><path fill="#000000" d="M59.879,34.834c-1.106,3.328-2.213,6.656-3.319,9.984c3.605,0.272,7.211,0.545,10.726,1.088   c1.106-3.328,2.213-6.656,3.319-9.984C67.09,35.378,63.484,35.106,59.879,34.834z"/><path fill="#000000" d="M74.151,58.609c1.106-3.328,2.213-6.656,3.319-9.984c-3.244-1.359-6.669-2.174-10.184-2.718   c-1.106,3.328-2.213,6.656-3.319,9.984C67.482,56.435,70.907,57.25,74.151,58.609z"/><path fill="#000000" d="M45.834,43.73c-1.106,3.328-2.213,6.656-3.319,9.984c3.515,0.544,7.12,0.816,10.726,1.088   c1.106-3.328,2.213-6.656,3.319-9.984C52.955,44.546,49.349,44.274,45.834,43.73z"/><path fill="#000000" d="M96.786,24.382c-3.25-3.161-7.072-5.443-11.684-6.976c-5.876-1.953-12.323-2.44-18.557-2.911   c-6.19-0.468-12.59-0.951-18.379-2.875c-4.325-1.438-7.935-3.55-11.02-6.444l1.104-3.321l-2.818-0.937L3.398,97.287l2.818,0.937   l14.077-42.35c3.11,2.85,6.731,4.939,11.044,6.372c5.876,1.953,12.323,2.44,18.557,2.911c6.19,0.468,12.59,0.951,18.379,2.875   c4.503,1.497,8.233,3.722,11.401,6.804l0.424,0.413l16.854-50.705L96.786,24.382z M60.766,65.522   c1.067-3.21,2.134-6.421,3.201-9.631c-3.515-0.544-7.12-0.816-10.726-1.088c-1.066,3.207-2.132,6.414-3.198,9.621   c-0.031-0.002-0.062-0.005-0.093-0.007c-3.527-0.266-7.122-0.539-10.634-1.079c1.066-3.208,2.133-6.416,3.199-9.623   c-3.515-0.544-6.94-1.359-10.184-2.718c-1.067,3.21-2.134,6.42-3.201,9.63c-3.267-1.372-6.093-3.197-8.579-5.529l3.192-9.603   c2.655,2.461,5.54,4.226,8.588,5.502c1.106-3.328,2.213-6.656,3.319-9.984c-3.048-1.276-5.934-3.042-8.588-5.502l3.319-9.984   c2.655,2.461,5.54,4.226,8.588,5.502c1.106-3.328,2.213-6.656,3.319-9.984c-3.048-1.276-5.934-3.042-8.588-5.502l3.188-9.591   c2.504,2.295,5.34,4.098,8.602,5.461c-1.067,3.211-2.134,6.421-3.202,9.632c3.244,1.359,6.669,2.174,10.184,2.718   c1.067-3.21,2.134-6.421,3.201-9.631c3.545,0.552,7.167,0.83,10.723,1.098c-1.066,3.207-2.132,6.414-3.198,9.621   c3.605,0.272,7.211,0.545,10.726,1.088c1.066-3.208,2.133-6.416,3.199-9.623c2.651,0.408,5.255,0.968,7.745,1.796   c0.84,0.279,1.653,0.584,2.441,0.915c-1.067,3.21-2.134,6.42-3.201,9.63c3.13,1.311,6.089,3.134,8.802,5.7l-3.319,9.984   c-2.713-2.565-5.672-4.389-8.802-5.7c-1.106,3.328-2.213,6.656-3.319,9.984c3.13,1.311,6.089,3.134,8.802,5.7l-3.319,9.984   c-2.713-2.565-5.672-4.389-8.802-5.7c-1.067,3.211-2.134,6.421-3.202,9.632c-0.789-0.33-1.602-0.634-2.442-0.913   C66.01,66.498,63.409,65.934,60.766,65.522z"/></g><text x="0" y="115" fill="#000000" font-size="5px" font-weight="bold" font-family="'Helvetica Neue', Helvetica, Arial-Unicode, Arial, Sans-serif">Created by René Andritsch</text><text x="0" y="120" fill="#000000" font-size="5px" font-weight="bold" font-family="'Helvetica Neue', Helvetica, Arial-Unicode, Arial, Sans-serif">from the Noun Project</text></svg>