<?xml version="1.0" encoding="UTF-8" standalone="no"?>
<!-- Created with Inkscape (http://www.inkscape.org/) -->

<svg
   xmlns:dc="http://purl.org/dc/elements/1.1/"
   xmlns:cc="http://creativecommons.org/ns#"
   xmlns:rdf="http://www.w3.org/1999/02/22-rdf-syntax-ns#"
   xmlns:svg="http://www.w3.org/2000/svg"
   xmlns="http://www.w3.org/2000/svg"
   xmlns:sodipodi="http://sodipodi.sourceforge.net/DTD/sodipodi-0.dtd"
   xmlns:inkscape="http://www.inkscape.org/namespaces/inkscape"
   inkscape:version="0.91 r13725"
   version="1.1"
   id="svg2"
   viewBox="0 0 270.48843 294.3543"
   height="83.073326mm"
   width="76.337845mm"
   sodipodi:docname="play.svg">
  <sodipodi:namedview
     inkscape:window-maximized="0"
     inkscape:window-y="34"
     inkscape:window-x="70"
     inkscape:window-height="1100"
     inkscape:window-width="1460"
     showgrid="false"
     inkscape:current-layer="layer1"
     inkscape:document-units="px"
     inkscape:cy="196.82408"
     inkscape:cx="138.32837"
     inkscape:zoom="1.24"
     inkscape:pageshadow="2"
     inkscape:pageopacity="0.0"
     borderopacity="1.0"
     bordercolor="#666666"
     pagecolor="#ffffff"
     id="base"
     fit-margin-top="0"
     fit-margin-left="0"
     fit-margin-right="0"
     fit-margin-bottom="0" />
  <defs
     id="defs4" />
  <metadata
     id="metadata7">
    <rdf:RDF>
      <cc:Work
         rdf:about="">
        <dc:format>image/svg+xml</dc:format>
        <dc:type
           rdf:resource="http://purl.org/dc/dcmitype/StillImage" />
        <dc:title></dc:title>
      </cc:Work>
    </rdf:RDF>
  </metadata>
  <g
     inkscape:label="Layer 1"
     inkscape:groupmode="layer"
     id="layer1"
     transform="translate(-141.91357,-560.98976)">
    <path
       style="fill:#008000"
       d="m 171.37834,848.99953 c 7.25414,4.06169 15.46058,6.34453 24.16482,6.34453 6.56448,0 12.84499,-1.30174 18.64845,-3.68287 5.16614,-1.45552 10.28095,-3.57474 15.20481,-6.41753 l 151.55456,-87.50021 c 5.6605,-3.26809 10.62249,-7.22858 14.84687,-11.66474 3.30468,-3.15806 6.20581,-6.80347 8.58532,-10.92491 1.15839,-2.00639 2.14026,-4.06707 2.9871,-6.16208 6.93922,-15.33488 6.95793,-32.791 -1.552,-47.53061 -5.42232,-9.39175 -13.53745,-16.33029 -23.03992,-20.56635 -1.06348,-0.69689 -2.14406,-1.3777 -3.26147,-2.02284 l -151.55444,-87.5 c -2.7442,-1.58436 -5.54938,-2.94417 -8.38739,-4.09371 -7.22309,-4.01767 -15.37881,-6.28846 -24.03256,-6.28845 -11.24349,-1e-5 -21.65373,3.81572 -30.25585,10.34607 -6.38205,4.158 -11.83195,9.73182 -15.82109,16.64121 -3.6793,6.37274 -5.76248,13.25434 -6.38622,20.25267 -0.75842,4.01032 -1.16564,8.1683 -1.16564,12.43692 l -1.2e-4,175.00021 c 0,22.72964 11.30635,42.41322 28.02658,52.49559 0.47501,0.28643 0.95459,0.56633 1.43819,0.8371 z"
       id="rect3431"
       inkscape:connector-curvature="0" />
  </g>
</svg>
