<?xml version="1.0" encoding="UTF-8" standalone="no"?>
<svg id="svg2" xmlns:rdf="http://www.w3.org/1999/02/22-rdf-syntax-ns#" xmlns="http://www.w3.org/2000/svg" height="100%" width="100%" version="1.1" xmlns:cc="http://creativecommons.org/ns#" xmlns:dc="http://purl.org/dc/elements/1.1/" viewBox="0 0 86.43739 85.43738">
 <defs id="defs4">
  <radialGradient id="radialGradient4644" gradientUnits="userSpaceOnUse" cy="580.04" cx="-147.14" gradientTransform="matrix(3.6543 -.14563 .3289 4.9433 180.85 -2165.1)" r="15.893">
   <stop id="stop7" stop-color="#fff" offset="0"/>
   <stop id="stop9" stop-opacity="0" offset="1"/>
  </radialGradient>
 </defs>
 <title id="title11">mic</title>
 <title id="title13">Layer 1</title>
 <path id="path15" fill="#a00" d="m86.437 42.719c0 23.593-19.35 42.719-43.219 42.719-23.868-0.001-43.218-19.126-43.218-42.719s19.35-42.719 43.219-42.719 43.218 19.126 43.218 42.719z"/>
 <g id="g17" transform="matrix(1.2281 0 0 1.2139 -762.08 -331.93)">
  <path id="path19" d="m644.16 314.01c-0.34198 0-0.61999 0.302-0.61999 0.68201 0 0.059 0.008 0.12097 0.021 0.17596v11.716c0 1.093 0.66199 1.975 1.489 1.975h21.354c0.82599 0 1.489-0.88202 1.489-1.975v-11.716c0.002-0.025 0-0.047 0-0.073 0-0.38-0.27795-0.69202-0.62097-0.69202s-0.61999 0.31201-0.61999 0.69202c0 0.07 0.014 0.13403 0.031 0.19702v10.113c0 1.06-0.60101 1.913-1.344 1.913h-19.22c-0.74402 0-1.3441-0.85303-1.3441-1.913v-10.237h-0.021c0.013-0.055 0.021-0.117 0.021-0.17596 0-0.38-0.27899-0.68201-0.62097-0.68201z"/>
  <g id="g21" transform="matrix(.33091 0 0 .33091 707.82 66.661)">
   <path id="path23" d="m-158.22 665.76h1.8785a28.346 28.346 0 0 1 28.346 28.346v52.892a28.346 28.346 0 0 1 -28.346 28.346h-1.8785a28.346 28.346 0 0 1 -28.346 -28.346v-52.892a28.346 28.346 0 0 1 28.346 -28.346"/>
   <path id="path25" fill="url(#radialGradient4644)" d="m-160.31 669.55a20.536 21.26 0 0 1 20.536 21.26v60.994a20.536 21.26 0 0 1 -20.536 21.26 20.536 21.26 0 0 1 -20.536 -21.26v-60.99a20.536 21.26 0 0 1 20.536 -21.26"/>
   <path id="path27" d="m-175.42 732.69c0 1.4246-1.0393 2.5794-2.3214 2.5794s-2.3214-1.1548-2.3214-2.5794 1.0393-2.5794 2.3214-2.5794 2.3214 1.1548 2.3214 2.5794z"/>
   <path id="path29" d="m-175.42 725.09c0 1.4246-1.0393 2.5794-2.3214 2.5794s-2.3214-1.1548-2.3214-2.5794 1.0393-2.5794 2.3214-2.5794 2.3214 1.1548 2.3214 2.5794z"/>
   <path id="path31" d="m-175.42 717.49c0 1.4246-1.0393 2.5794-2.3214 2.5794s-2.3214-1.1548-2.3214-2.5794 1.0393-2.5794 2.3214-2.5794 2.3214 1.1548 2.3214 2.5794z"/>
   <path id="path33" d="m-175.42 709.89c0 1.4246-1.0393 2.5794-2.3214 2.5794s-2.3214-1.1548-2.3214-2.5794 1.0393-2.5794 2.3214-2.5794 2.3214 1.1548 2.3214 2.5794z"/>
   <path id="path35" d="m-175.42 702.29c0 1.4246-1.0393 2.5794-2.3214 2.5794s-2.3214-1.1548-2.3214-2.5794 1.0393-2.5794 2.3214-2.5794 2.3214 1.1548 2.3214 2.5794z"/>
   <path id="path37" d="m-175.42 694.69c0 1.4246-1.0393 2.5795-2.3214 2.5795s-2.3214-1.1549-2.3214-2.5795 1.0393-2.5794 2.3214-2.5794 2.3214 1.1548 2.3214 2.5794z"/>
   <path id="path39" d="m-175.42 686.69c0 1.4246-1.0393 2.5794-2.3214 2.5794s-2.3214-1.1548-2.3214-2.5794 1.0393-2.5794 2.3214-2.5794 2.3214 1.1548 2.3214 2.5794z"/>
   <path id="path41" d="m-175.42 678.69c0 1.4246-1.0393 2.5794-2.3214 2.5794s-2.3214-1.1548-2.3214-2.5794 1.0393-2.5794 2.3214-2.5794 2.3214 1.1548 2.3214 2.5794z"/>
   <path id="path43" d="m-163.42 732.69c0 1.4246-1.0393 2.5794-2.3214 2.5794s-2.3214-1.1548-2.3214-2.5794 1.0393-2.5794 2.3214-2.5794 2.3214 1.1548 2.3214 2.5794z"/>
   <path id="path45" d="m-163.42 725.09c0 1.4246-1.0393 2.5794-2.3214 2.5794s-2.3214-1.1548-2.3214-2.5794 1.0393-2.5794 2.3214-2.5794 2.3214 1.1548 2.3214 2.5794z"/>
   <path id="path47" d="m-163.42 717.49c0 1.4246-1.0393 2.5794-2.3214 2.5794s-2.3214-1.1548-2.3214-2.5794 1.0393-2.5794 2.3214-2.5794 2.3214 1.1548 2.3214 2.5794z"/>
   <path id="path49" d="m-163.42 709.89c0 1.4246-1.0393 2.5794-2.3214 2.5794s-2.3214-1.1548-2.3214-2.5794 1.0393-2.5794 2.3214-2.5794 2.3214 1.1548 2.3214 2.5794z"/>
   <path id="path51" d="m-163.42 702.29c0 1.4246-1.0393 2.5794-2.3214 2.5794s-2.3214-1.1548-2.3214-2.5794 1.0393-2.5794 2.3214-2.5794 2.3214 1.1548 2.3214 2.5794z"/>
   <path id="path53" d="m-163.42 694.69c0 1.4246-1.0393 2.5795-2.3214 2.5795s-2.3214-1.1549-2.3214-2.5795 1.0393-2.5794 2.3214-2.5794 2.3214 1.1548 2.3214 2.5794z"/>
   <path id="path55" d="m-163.42 686.69c0 1.4246-1.0393 2.5794-2.3214 2.5794s-2.3214-1.1548-2.3214-2.5794 1.0393-2.5794 2.3214-2.5794 2.3214 1.1548 2.3214 2.5794z"/>
   <path id="path57" d="m-163.42 678.69c0 1.4246-1.0393 2.5794-2.3214 2.5794s-2.3214-1.1548-2.3214-2.5794 1.0393-2.5794 2.3214-2.5794 2.3214 1.1548 2.3214 2.5794z"/>
   <path id="path59" d="m-169.39 736.19c0 1.4246-1.0393 2.5794-2.3214 2.5794s-2.3214-1.1548-2.3214-2.5794 1.0393-2.5794 2.3214-2.5794 2.3214 1.1548 2.3214 2.5794z"/>
   <path id="path61" d="m-169.46 728.48c0 1.4246-1.0393 2.5794-2.3214 2.5794s-2.3214-1.1548-2.3214-2.5794 1.0393-2.5794 2.3214-2.5794 2.3214 1.1548 2.3214 2.5794z"/>
   <path id="path63" d="m-169.46 720.78c0 1.4246-1.0393 2.5794-2.3214 2.5794s-2.3214-1.1548-2.3214-2.5794 1.0393-2.5794 2.3214-2.5794 2.3214 1.1548 2.3214 2.5794z"/>
   <path id="path65" d="m-169.46 713.08c0 1.4246-1.0393 2.5794-2.3214 2.5794s-2.3214-1.1548-2.3214-2.5794 1.0393-2.5794 2.3214-2.5794 2.3214 1.1548 2.3214 2.5794z"/>
   <path id="path67" d="m-169.46 705.38c0 1.4246-1.0393 2.5794-2.3214 2.5794s-2.3214-1.1548-2.3214-2.5794 1.0393-2.5794 2.3214-2.5794 2.3214 1.1548 2.3214 2.5794z"/>
   <path id="path69" d="m-169.46 697.67c0 1.4246-1.0393 2.5794-2.3214 2.5794s-2.3214-1.1548-2.3214-2.5794 1.0393-2.5794 2.3214-2.5794 2.3214 1.1548 2.3214 2.5794z"/>
   <path id="path71" d="m-169.46 689.97c0 1.4246-1.0393 2.5794-2.3214 2.5794s-2.3214-1.1548-2.3214-2.5794 1.0393-2.5794 2.3214-2.5794 2.3214 1.1548 2.3214 2.5794z"/>
   <path id="path73" d="m-169.46 681.97c0 1.4246-1.0393 2.5794-2.3214 2.5794s-2.3214-1.1548-2.3214-2.5794 1.0393-2.5794 2.3214-2.5794 2.3214 1.1548 2.3214 2.5794z"/>
   <path id="path75" d="m-169.46 673.97c0 1.4246-1.0393 2.5794-2.3214 2.5794s-2.3214-1.1548-2.3214-2.5794 1.0393-2.5794 2.3214-2.5794 2.3214 1.1548 2.3214 2.5794z"/>
   <path id="path77" d="m-157.39 736.19c0 1.4247-1.0393 2.5795-2.3214 2.5795s-2.3214-1.1548-2.3214-2.5795 1.0394-2.5794 2.3214-2.5794c1.2821 0 2.3214 1.1548 2.3214 2.5794z"/>
   <path id="path79" d="m-157.46 728.48c0 1.4246-1.0393 2.5794-2.3214 2.5794s-2.3214-1.1548-2.3214-2.5794 1.0393-2.5794 2.3214-2.5794 2.3214 1.1548 2.3214 2.5794z"/>
   <path id="path81" d="m-157.46 720.78c0 1.4246-1.0393 2.5794-2.3214 2.5794s-2.3214-1.1548-2.3214-2.5794 1.0393-2.5794 2.3214-2.5794 2.3214 1.1548 2.3214 2.5794z"/>
   <path id="path83" d="m-157.46 713.08c0 1.4246-1.0393 2.5794-2.3214 2.5794s-2.3214-1.1548-2.3214-2.5794 1.0393-2.5794 2.3214-2.5794 2.3214 1.1548 2.3214 2.5794z"/>
   <path id="path85" d="m-157.46 705.38c0 1.4246-1.0393 2.5794-2.3214 2.5794s-2.3214-1.1548-2.3214-2.5794 1.0393-2.5794 2.3214-2.5794 2.3214 1.1548 2.3214 2.5794z"/>
   <path id="path87" d="m-157.46 697.67c0 1.4246-1.0393 2.5794-2.3214 2.5794s-2.3214-1.1548-2.3214-2.5794 1.0393-2.5794 2.3214-2.5794 2.3214 1.1548 2.3214 2.5794z"/>
   <path id="path89" d="m-157.46 689.97c0 1.4246-1.0393 2.5794-2.3214 2.5794s-2.3214-1.1548-2.3214-2.5794 1.0393-2.5794 2.3214-2.5794 2.3214 1.1548 2.3214 2.5794z"/>
   <path id="path91" d="m-157.46 681.97c0 1.4246-1.0393 2.5794-2.3214 2.5794s-2.3214-1.1548-2.3214-2.5794 1.0393-2.5794 2.3214-2.5794 2.3214 1.1548 2.3214 2.5794z"/>
   <path id="path93" d="m-157.46 673.97c0 1.4246-1.0393 2.5794-2.3214 2.5794s-2.3214-1.1548-2.3214-2.5794 1.0393-2.5794 2.3214-2.5794 2.3214 1.1548 2.3214 2.5794z"/>
   <path id="path95" d="m-163.17 670.76c0 1.4246-1.0393 2.5794-2.3214 2.5794s-2.3214-1.1548-2.3214-2.5794 1.0393-2.5794 2.3214-2.5794 2.3214 1.1548 2.3214 2.5794z"/>
   <path id="path97" d="m-145.89 735.11c0 1.4246-1.0393 2.5794-2.3214 2.5794s-2.3214-1.1548-2.3214-2.5794 1.0394-2.5794 2.3214-2.5794c1.2821 0 2.3214 1.1548 2.3214 2.5794z"/>
   <path id="path99" d="m-145.96 727.41c0 1.4246-1.0393 2.5794-2.3214 2.5794s-2.3214-1.1548-2.3214-2.5794 1.0393-2.5794 2.3214-2.5794 2.3214 1.1548 2.3214 2.5794z"/>
   <path id="path101" d="m-145.96 719.71c0 1.4246-1.0393 2.5794-2.3214 2.5794s-2.3214-1.1548-2.3214-2.5794 1.0393-2.5794 2.3214-2.5794 2.3214 1.1548 2.3214 2.5794z"/>
   <path id="path103" d="m-145.96 712.01c0 1.4246-1.0393 2.5794-2.3214 2.5794s-2.3214-1.1548-2.3214-2.5794 1.0393-2.5794 2.3214-2.5794 2.3214 1.1548 2.3214 2.5794z"/>
   <path id="path105" d="m-145.96 704.3c0 1.4246-1.0393 2.5795-2.3214 2.5795s-2.3214-1.1549-2.3214-2.5795 1.0393-2.5794 2.3214-2.5794 2.3214 1.1548 2.3214 2.5794z"/>
   <path id="path107" d="m-145.96 696.6c0 1.4246-1.0393 2.5795-2.3214 2.5795s-2.3214-1.1549-2.3214-2.5795 1.0393-2.5794 2.3214-2.5794 2.3214 1.1548 2.3214 2.5794z"/>
   <path id="path109" d="m-145.96 688.9c0 1.4246-1.0393 2.5794-2.3214 2.5794s-2.3214-1.1548-2.3214-2.5794 1.0393-2.5794 2.3214-2.5794 2.3214 1.1548 2.3214 2.5794z"/>
   <path id="path111" d="m-145.96 680.9c0 1.4246-1.0393 2.5794-2.3214 2.5794s-2.3214-1.1548-2.3214-2.5794 1.0393-2.5794 2.3214-2.5794 2.3214 1.1548 2.3214 2.5794z"/>
   <path id="path113" d="m-145.96 672.9c0 1.4246-1.0393 2.5794-2.3214 2.5794s-2.3214-1.1548-2.3214-2.5794 1.0393-2.5794 2.3214-2.5794 2.3214 1.1548 2.3214 2.5794z"/>
   <path id="path115" d="m-151.74 732.61c0 1.4246-1.0393 2.5795-2.3214 2.5795s-2.3214-1.1549-2.3214-2.5795 1.0393-2.5794 2.3214-2.5794 2.3214 1.1548 2.3214 2.5794z"/>
   <path id="path117" d="m-151.81 724.91c0 1.4246-1.0393 2.5794-2.3214 2.5794s-2.3214-1.1548-2.3214-2.5794 1.0393-2.5794 2.3214-2.5794 2.3214 1.1548 2.3214 2.5794z"/>
   <path id="path119" d="m-151.81 717.21c0 1.4246-1.0393 2.5794-2.3214 2.5794s-2.3214-1.1548-2.3214-2.5794 1.0393-2.5794 2.3214-2.5794 2.3214 1.1548 2.3214 2.5794z"/>
   <path id="path121" d="m-151.81 709.51c0 1.4246-1.0393 2.5794-2.3214 2.5794s-2.3214-1.1548-2.3214-2.5794 1.0393-2.5794 2.3214-2.5794 2.3214 1.1548 2.3214 2.5794z"/>
   <path id="path123" d="m-151.81 701.8c0 1.4246-1.0393 2.5794-2.3214 2.5794s-2.3214-1.1548-2.3214-2.5794 1.0393-2.5794 2.3214-2.5794 2.3214 1.1548 2.3214 2.5794z"/>
   <path id="path125" d="m-151.81 694.1c0 1.4246-1.0393 2.5794-2.3214 2.5794s-2.3214-1.1548-2.3214-2.5794 1.0393-2.5794 2.3214-2.5794 2.3214 1.1548 2.3214 2.5794z"/>
   <path id="path127" d="m-151.81 686.4c0 1.4246-1.0393 2.5794-2.3214 2.5794s-2.3214-1.1548-2.3214-2.5794 1.0393-2.5794 2.3214-2.5794 2.3214 1.1548 2.3214 2.5794z"/>
   <path id="path129" d="m-151.81 678.4c0 1.4246-1.0393 2.5794-2.3214 2.5794s-2.3214-1.1548-2.3214-2.5794 1.0393-2.5794 2.3214-2.5794 2.3214 1.1548 2.3214 2.5794z"/>
   <path id="path131" d="m-151.81 670.4c0 1.4246-1.0393 2.5794-2.3214 2.5794s-2.3214-1.1548-2.3214-2.5794 1.0393-2.5794 2.3214-2.5794 2.3214 1.1548 2.3214 2.5794z"/>
   <path id="path133" d="m-184.11 740.61h53.302a4.7504 1.9369 0 0 1 4.7504 1.9369 4.7504 1.9369 0 0 1 -4.7504 1.9369h-53.302a4.7504 1.9369 0 0 1 -4.7504 -1.9369 4.7504 1.9369 0 0 1 4.7504 -1.9369" stroke="#000" stroke-width=".69755" fill="#b3b3b3"/>
   <path id="path135" d="m-139.42 731.97c0 1.4246-1.0393 2.5794-2.3214 2.5794s-2.3214-1.1548-2.3214-2.5794 1.0393-2.5794 2.3214-2.5794 2.3214 1.1548 2.3214 2.5794z"/>
   <path id="path137" d="m-139.42 724.37c0 1.4246-1.0393 2.5794-2.3214 2.5794s-2.3214-1.1548-2.3214-2.5794 1.0393-2.5794 2.3214-2.5794 2.3214 1.1548 2.3214 2.5794z"/>
   <path id="path139" d="m-139.42 716.77c0 1.4246-1.0393 2.5794-2.3214 2.5794s-2.3214-1.1548-2.3214-2.5794 1.0393-2.5794 2.3214-2.5794 2.3214 1.1548 2.3214 2.5794z"/>
   <path id="path141" d="m-139.42 709.17c0 1.4246-1.0393 2.5794-2.3214 2.5794s-2.3214-1.1548-2.3214-2.5794 1.0393-2.5794 2.3214-2.5794 2.3214 1.1548 2.3214 2.5794z"/>
   <path id="path143" d="m-139.42 701.57c0 1.4246-1.0393 2.5794-2.3214 2.5794s-2.3214-1.1548-2.3214-2.5794 1.0393-2.5794 2.3214-2.5794 2.3214 1.1548 2.3214 2.5794z"/>
   <path id="path145" d="m-139.42 693.97c0 1.4246-1.0393 2.5794-2.3214 2.5794s-2.3214-1.1548-2.3214-2.5794 1.0393-2.5794 2.3214-2.5794 2.3214 1.1548 2.3214 2.5794z"/>
   <path id="path147" d="m-139.42 685.97c0 1.4246-1.0393 2.5794-2.3214 2.5794s-2.3214-1.1548-2.3214-2.5794 1.0393-2.5794 2.3214-2.5794 2.3214 1.1548 2.3214 2.5794z"/>
   <path id="path149" d="m-139.42 677.97c0 1.4246-1.0393 2.5794-2.3214 2.5794s-2.3214-1.1548-2.3214-2.5794 1.0393-2.5794 2.3214-2.5794 2.3214 1.1548 2.3214 2.5794z"/>
   <path id="path151" d="m-123.97 750.4c0 1.4246-1.0393 2.5794-2.3214 2.5794s-2.3214-1.1548-2.3214-2.5794 1.0393-2.5794 2.3214-2.5794 2.3214 1.1548 2.3214 2.5794z"/>
   <path id="path153" d="m-186.11 750.4c0 1.4246-1.0393 2.5794-2.3214 2.5794s-2.3214-1.1548-2.3214-2.5794 1.0394-2.5794 2.3214-2.5794c1.2821 0 2.3214 1.1548 2.3214 2.5794z"/>
   <path id="path155" d="m-160.59 785.26h6.4492a4.2754 6.0905 0 0 1 4.2754 6.0905v38.89a4.2754 6.0905 0 0 1 -4.2754 6.0905h-6.4492a4.2754 6.0905 0 0 1 -4.2754 -6.0905v-38.89a4.2754 6.0905 0 0 1 4.2754 -6.0905"/>
  </g>
 </g>
</svg>
