<?xml version="1.0" encoding="UTF-8" standalone="no"?>
<svg viewBox="0 0 400 400" xmlns="http://www.w3.org/2000/svg" xmlns:xlink="http://www.w3.org/1999/xlink">
<defs>
<filter id="filter19487">
<feGaussianBlur stdDeviation="2.70849"/>
</filter>
<filter id="filter3172">
<feGaussianBlur stdDeviation="5.09248"/>
</filter>
<linearGradient id="linearGradient3134">
<stop offset="0" stop-color="#ffa1a1"/>
<stop offset="1" stop-color="#b41e1e"/>
</linearGradient>
<linearGradient gradientUnits="userSpaceOnUse" id="linearGradient3140" x1="29.75385" x2="202.58235" xlink:href="#linearGradient3134" y1="-13.26963" y2="183.58783"/>
<linearGradient gradientUnits="userSpaceOnUse" id="linearGradient2184" x1="125.62539" x2="334.47869" xlink:href="#linearGradient3134" y1="90.90352" y2="328.79445"/>
</defs>
<path d="m209.96952,45.92297c-4.21444.21749-8.0347,2.54657-10.15847,6.19326l-168.95537,291.53676c-2.2394,3.86491-2.24648,8.63102-.01859,12.50258s6.35223,6.26023 10.81904,6.26604l336.92888.52869c4.46863.01341 8.60458-2.35943 10.84845-6.22387s2.25436-8.63271.02753-12.50699l-168.01127-292.06544c-2.35105-4.07005-6.78637-6.47738-11.4802-6.23103zm.60422,37.46171 146.41036,254.5282-293.65153-.45316 147.24117-254.07504z" fill="#777" fill-opacity=".7973" filter="url(#filter3172)"/>
<path d="m199.82666,41.4944c-4.21444.2175-8.03469,2.54657-10.15847,6.19327l-168.95537,291.53676c-2.2394,3.86491-2.24648,8.63102-.01859,12.50258s6.35222,6.26023 10.81904,6.26604l336.92887.52869c4.46863.01341 8.60459-2.35943 10.84845-6.22387s2.25437-8.63271.02753-12.50699l-168.01127-292.06544c-2.35105-4.07005-6.78637-6.47738-11.4802-6.23103zm.60422,37.46172 146.41036,254.5282-293.65153-.45316 147.24117-254.07504z" fill="url(#linearGradient2184)" stroke="#000" stroke-linecap="round" stroke-linejoin="round" stroke-width="6.25"/>
<path d="m230.71429,197.85715-278.8292-.44647 139.80124-241.24993 139.02795,241.6964z" fill="url(#linearGradient3140)" stroke="url(#linearGradient3140)" stroke-linecap="round" stroke-linejoin="round" stroke-width="20.68779" transform="matrix(1.20844,0,0,1.20844,89.66957,106.93911)"/>
<path d="m199.83709,54.78401c-3.96744.20475-7.5638,2.39733-9.56311,5.83029l-159.05328,274.45047c-2.10815,3.6384-2.11482,8.12517-.0175,11.76983s5.97993,5.89333 10.18496,5.8988l317.18226.49771c4.20673.01262 8.10029-2.22115 10.21264-5.85911s2.12225-8.12676.02592-11.77398l-158.16452-274.94817c-2.21326-3.83151-6.38864-6.09775-10.80737-5.86585z" fill="#c91010" filter="url(#filter19487)" opacity=".66102"/>
<path d="m199.89718,120.30988c-2.54426.13131-4.85055,1.53737-6.13268,3.73888l-101.99843,176.00088c-1.35193,2.33324-1.3562,5.21055-.01122,7.54781s3.83484,3.7793 6.53146,3.78281l203.40412.31917c2.69771.00809 5.19459-1.42439 6.54921-3.75736s1.36096-5.21156.01662-7.55047l-101.42848-176.32004c-1.41933-2.45709-4.09694-3.9104-6.9306-3.76168z" fill="#fff"/>
<path d="m202.36386,249.66668h-4.71854c-.48816-8.24382-2.11524-18.11478-4.88125-29.61289l-5.61343-23.42998c-3.36266-14.04703-5.04397-24.10781-5.04395-30.18238-2e-005-12.25721 5.93882-18.38587 17.81655-18.38602 5.20662.00015 9.50482,1.69502 12.89462,5.08463s5.08458,7.71521 5.08463,12.97598c-5e-005,5.58644-1.78984,15.75569-5.36937,30.50779l-5.69479,23.42998c-2.00677,8.24395-3.49826,18.1149-4.47447,29.61289zm-2.19656,15.37593c5.53203,3e-005 9.81668,1.85761 12.85395,5.57275s4.55577,7.68799 4.55583,11.91838c-6e-005,5.58632-1.84408,9.88453-5.53208,12.89463s-7.64733,4.51515-11.8777,4.51515c-5.58635,0-9.88455-1.84403-12.89463-5.53208s-4.51517-7.64728-4.51515-11.8777c-2e-005-4.93546 1.66774-9.08452 5.00328-12.44718s7.47098-5.04392 12.4065-5.04395z"/>
</svg>
